<?xml version="1.0" standalone="no"?><!DOCTYPE svg PUBLIC "-//W3C//DTD SVG 1.1//EN"
        "http://www.w3.org/Graphics/SVG/1.1/DTD/svg11.dtd">
<svg t="1594285374430" class="icon" viewBox="0 0 1316 1024" version="1.1" xmlns="http://www.w3.org/2000/svg" p-id="5556"
     xmlns:xlink="http://www.w3.org/1999/xlink" width="38.5546875" height="30">
    <defs>
        <style type="text/css"></style>
    </defs>
    <path d="M0.292571 575.975619l320.536381 124.184381 995.449905-343.393524z" fill="#E6E6E6" p-id="5557"></path>
    <path d="M1265.517714 378.404571L321.767619 702.982095l40.423619 266.246095 903.326476-590.823619z" fill="#D1D1D1"
          p-id="5558"></path>
    <path d="M582.144 147.913143L961.901714 3.029333c15.043048 0 27.257905 13.165714 27.257905 28.220953v523.087238c0 15.993905-12.214857 28.220952-27.257905 28.220952L582.144 728.380952c-15.036952 0-27.257905-13.165714-27.257905-28.220952V176.134095c0-15.993905 12.220952-28.220952 27.257905-28.220952z"
          fill="#FFFFFF" p-id="5559"></path>
    <path d="M429.866667 716.153905l172.019809 92.196571-233.118476 151.466667 61.098667-243.663238z" fill="#BFBFBF"
          p-id="5560"></path>
    <path d="M431.750095 714.270476l290.456381 309.522286 594.072381-668.903619z" fill="#E6E6E6" p-id="5561"></path>
    <path d="M558.646857 252.342857c-7.521524-5.650286-7.521524-18.822095-7.521524-29.165714V172.373333c0-15.993905 12.220952-29.165714 27.264-29.165714L961.901714 0.207238c15.043048 0 28.202667 25.398857 23.497143 56.441905v31.993905L558.646857 252.336762z m203.977143-40.46019l2.822095 14.116571 221.836191-89.380571V122.514286l-224.658286 89.374476zM553.947429 605.141333l2.822095 15.055238 118.430476-48.926476-2.816-15.055238-118.436571 48.926476z m351.555047-107.251809l79.896381-31.98781 0.944762-15.055238-84.601905 31.98781 3.760762 15.055238z"
          fill="#D1D1D1" p-id="5562"></path>
    <path d="M689.310476 316.312381l81.773714-25.398857-2.822095 67.736381-19.736381-21.638095-18.803809 5.64419-9.398857 89.374476 83.663238-30.104381 1.877333-29.165714-25.380571 7.527619 6.582857-94.08 69.558857-23.521524 12.220952-12.227047-4.705524 51.742476-40.411428 11.288381-1.889524 29.165714 32.902095-9.404952-8.46019 95.018666-172.013714 62.092191 15.036952-174.049524z"
          fill="#E6E6E6" p-id="5563"></path>
</svg>